<svg id="my-svg" width="100%" xmlns="http://www.w3.org/2000/svg" xmlns:xlink="http://www.w3.org/1999/xlink" class="classDiagram" style="max-width: 1438.95px;" viewBox="0 0 1438.9453125 426" role="graphics-document document" aria-roledescription="class"><style>#my-svg{font-family:"trebuchet ms",verdana,arial,sans-serif;font-size:18px;fill:#333;}@keyframes edge-animation-frame{from{stroke-dashoffset:0;}}@keyframes dash{to{stroke-dashoffset:0;}}#my-svg .edge-animation-slow{stroke-dasharray:9,5!important;stroke-dashoffset:900;animation:dash 50s linear infinite;stroke-linecap:round;}#my-svg .edge-animation-fast{stroke-dasharray:9,5!important;stroke-dashoffset:900;animation:dash 20s linear infinite;stroke-linecap:round;}#my-svg .error-icon{fill:hsl(220.5882352941, 100%, 98.3333333333%);}#my-svg .error-text{fill:rgb(8.5000000002, 5.7500000001, 0);stroke:rgb(8.5000000002, 5.7500000001, 0);}#my-svg .edge-thickness-normal{stroke-width:1px;}#my-svg .edge-thickness-thick{stroke-width:3.5px;}#my-svg .edge-pattern-solid{stroke-dasharray:0;}#my-svg .edge-thickness-invisible{stroke-width:0;fill:none;}#my-svg .edge-pattern-dashed{stroke-dasharray:3;}#my-svg .edge-pattern-dotted{stroke-dasharray:2;}#my-svg .marker{fill:#0b0b0b;stroke:#0b0b0b;}#my-svg .marker.cross{stroke:#0b0b0b;}#my-svg svg{font-family:"trebuchet ms",verdana,arial,sans-serif;font-size:18px;}#my-svg p{margin:0;}#my-svg g.classGroup text{fill:hsl(40.5882352941, 60%, 83.3333333333%);stroke:none;font-family:"trebuchet ms",verdana,arial,sans-serif;font-size:10px;}#my-svg g.classGroup text .title{font-weight:bolder;}#my-svg .cluster-label text{fill:rgb(8.5000000002, 5.7500000001, 0);}#my-svg .cluster-label span{color:rgb(8.5000000002, 5.7500000001, 0);}#my-svg .cluster-label span p{background-color:transparent;}#my-svg .cluster rect{fill:hsl(220.5882352941, 100%, 98.3333333333%);stroke:hsl(220.5882352941, 60%, 88.3333333333%);stroke-width:1px;}#my-svg .cluster text{fill:rgb(8.5000000002, 5.7500000001, 0);}#my-svg .cluster span{color:rgb(8.5000000002, 5.7500000001, 0);}#my-svg .nodeLabel,#my-svg .edgeLabel{color:#333;}#my-svg .edgeLabel .label rect{fill:#fff4dd;}#my-svg .label text{fill:#333;}#my-svg .labelBkg{background:#fff4dd;}#my-svg .edgeLabel .label span{background:#fff4dd;}#my-svg .classTitle{font-weight:bolder;}#my-svg .node rect,#my-svg .node circle,#my-svg .node ellipse,#my-svg .node polygon,#my-svg .node path{fill:#fff4dd;stroke:hsl(40.5882352941, 60%, 83.3333333333%);stroke-width:1px;}#my-svg .divider{stroke:hsl(40.5882352941, 60%, 83.3333333333%);stroke-width:1;}#my-svg g.clickable{cursor:pointer;}#my-svg g.classGroup rect{fill:#fff4dd;stroke:hsl(40.5882352941, 60%, 83.3333333333%);}#my-svg g.classGroup line{stroke:hsl(40.5882352941, 60%, 83.3333333333%);stroke-width:1;}#my-svg .classLabel .box{stroke:none;stroke-width:0;fill:#fff4dd;opacity:0.5;}#my-svg .classLabel .label{fill:hsl(40.5882352941, 60%, 83.3333333333%);font-size:10px;}#my-svg .relation{stroke:#0b0b0b;stroke-width:1;fill:none;}#my-svg .dashed-line{stroke-dasharray:3;}#my-svg .dotted-line{stroke-dasharray:1 2;}#my-svg #compositionStart,#my-svg .composition{fill:#0b0b0b!important;stroke:#0b0b0b!important;stroke-width:1;}#my-svg #compositionEnd,#my-svg .composition{fill:#0b0b0b!important;stroke:#0b0b0b!important;stroke-width:1;}#my-svg #dependencyStart,#my-svg .dependency{fill:#0b0b0b!important;stroke:#0b0b0b!important;stroke-width:1;}#my-svg #dependencyStart,#my-svg .dependency{fill:#0b0b0b!important;stroke:#0b0b0b!important;stroke-width:1;}#my-svg #extensionStart,#my-svg .extension{fill:transparent!important;stroke:#0b0b0b!important;stroke-width:1;}#my-svg #extensionEnd,#my-svg .extension{fill:transparent!important;stroke:#0b0b0b!important;stroke-width:1;}#my-svg #aggregationStart,#my-svg .aggregation{fill:transparent!important;stroke:#0b0b0b!important;stroke-width:1;}#my-svg #aggregationEnd,#my-svg .aggregation{fill:transparent!important;stroke:#0b0b0b!important;stroke-width:1;}#my-svg #lollipopStart,#my-svg .lollipop{fill:#fff4dd!important;stroke:#0b0b0b!important;stroke-width:1;}#my-svg #lollipopEnd,#my-svg .lollipop{fill:#fff4dd!important;stroke:#0b0b0b!important;stroke-width:1;}#my-svg .edgeTerminals{font-size:11px;line-height:initial;}#my-svg .classTitleText{text-anchor:middle;font-size:18px;fill:#333;}#my-svg .label-icon{display:inline-block;height:1em;overflow:visible;vertical-align:-0.125em;}#my-svg .node .label-icon path{fill:currentColor;stroke:revert;stroke-width:revert;}#my-svg :root{--mermaid-font-family:"trebuchet ms",verdana,arial,sans-serif;}#my-svg .Operator&gt;*{fill:#f6ff00!important;stroke:#000000!important;}#my-svg .Operator span{fill:#f6ff00!important;stroke:#000000!important;}#my-svg .Installation&gt;*{fill:#f6ff00!important;stroke:#000000!important;}#my-svg .Installation span{fill:#f6ff00!important;stroke:#000000!important;}#my-svg .EmissionPoint&gt;*{fill:#4bde2a!important;stroke:#000000!important;}#my-svg .EmissionPoint span{fill:#4bde2a!important;stroke:#000000!important;}#my-svg .ObservableProperty&gt;*{fill:#ccffcc!important;stroke:#000000!important;}#my-svg .ObservableProperty span{fill:#ccffcc!important;stroke:#000000!important;}#my-svg .Observation&gt;*{fill:#ccccff!important;stroke:#000000!important;}#my-svg .Observation span{fill:#ccccff!important;stroke:#000000!important;}</style><g><defs><marker id="my-svg_class-aggregationStart" class="marker aggregation class" refX="18" refY="7" markerWidth="190" markerHeight="240" orient="auto"><path d="M 18,7 L9,13 L1,7 L9,1 Z"/></marker></defs><defs><marker id="my-svg_class-aggregationEnd" class="marker aggregation class" refX="1" refY="7" markerWidth="20" markerHeight="28" orient="auto"><path d="M 18,7 L9,13 L1,7 L9,1 Z"/></marker></defs><defs><marker id="my-svg_class-extensionStart" class="marker extension class" refX="18" refY="7" markerWidth="190" markerHeight="240" orient="auto"><path d="M 1,7 L18,13 V 1 Z"/></marker></defs><defs><marker id="my-svg_class-extensionEnd" class="marker extension class" refX="1" refY="7" markerWidth="20" markerHeight="28" orient="auto"><path d="M 1,1 V 13 L18,7 Z"/></marker></defs><defs><marker id="my-svg_class-compositionStart" class="marker composition class" refX="18" refY="7" markerWidth="190" markerHeight="240" orient="auto"><path d="M 18,7 L9,13 L1,7 L9,1 Z"/></marker></defs><defs><marker id="my-svg_class-compositionEnd" class="marker composition class" refX="1" refY="7" markerWidth="20" markerHeight="28" orient="auto"><path d="M 18,7 L9,13 L1,7 L9,1 Z"/></marker></defs><defs><marker id="my-svg_class-dependencyStart" class="marker dependency class" refX="6" refY="7" markerWidth="190" markerHeight="240" orient="auto"><path d="M 5,7 L9,13 L1,7 L9,1 Z"/></marker></defs><defs><marker id="my-svg_class-dependencyEnd" class="marker dependency class" refX="13" refY="7" markerWidth="20" markerHeight="28" orient="auto"><path d="M 18,7 L9,13 L14,7 L9,1 Z"/></marker></defs><defs><marker id="my-svg_class-lollipopStart" class="marker lollipop class" refX="13" refY="7" markerWidth="190" markerHeight="240" orient="auto"><circle fill="transparent" cx="7" cy="7" r="6"/></marker></defs><defs><marker id="my-svg_class-lollipopEnd" class="marker lollipop class" refX="1" refY="7" markerWidth="190" markerHeight="240" orient="auto"><circle fill="transparent" cx="7" cy="7" r="6"/></marker></defs><g class="root"><g class="clusters"/><g class="edgePaths"><path d="M710.094,118.971L720.056,117.726C730.018,116.481,749.943,113.99,768.867,112.745C787.792,111.5,805.716,111.5,814.678,111.5L823.641,111.5" id="id_EmissionPoint_Installation_1" class="edge-thickness-normal edge-pattern-solid relation" style=";;;" data-edge="true" data-et="edge" data-id="id_EmissionPoint_Installation_1" data-points="W3sieCI6NzEwLjA5Mzc1LCJ5IjoxMTguOTcxMzY5MjA4MzkzOTR9LHsieCI6NzY5Ljg2NzE4NzUsInkiOjExMS41fSx7IngiOjgyOS42NDA2MjUsInkiOjExMS41fV0=" marker-end="url(#my-svg_class-dependencyEnd)"/><path d="M1075.023,111.5L1085.003,111.5C1094.982,111.5,1114.94,111.5,1133.898,111.5C1152.857,111.5,1170.815,111.5,1179.794,111.5L1188.773,111.5" id="id_Installation_Operator_2" class="edge-thickness-normal edge-pattern-solid relation" style=";;;" data-edge="true" data-et="edge" data-id="id_Installation_Operator_2" data-points="W3sieCI6MTA3NS4wMjM0Mzc1LCJ5IjoxMTEuNX0seyJ4IjoxMTM0Ljg5ODQzNzUsInkiOjExMS41fSx7IngiOjExOTQuNzczNDM3NSwieSI6MTExLjV9XQ==" marker-end="url(#my-svg_class-dependencyEnd)"/><path d="M710.094,213.438L720.056,219.532C730.018,225.625,749.943,237.813,772.387,250.166C794.832,262.519,819.797,275.038,832.279,281.298L844.762,287.557" id="id_EmissionPoint_ObservableProperty_3" class="edge-thickness-normal edge-pattern-solid relation" style=";;;" data-edge="true" data-et="edge" data-id="id_EmissionPoint_ObservableProperty_3" data-points="W3sieCI6NzEwLjA5Mzc1LCJ5IjoyMTMuNDM3OTgwNDY5NTYxNn0seyJ4Ijo3NjkuODY3MTg3NSwieSI6MjUwfSx7IngiOjg1MC4xMjUsInkiOjI5MC4yNDY2MDE0NDI5MTQ5NH1d" marker-end="url(#my-svg_class-dependencyEnd)"/><path d="M293.563,167.866L306.901,162.388C320.24,156.91,346.917,145.955,372.594,140.478C398.271,135,422.948,135,435.286,135L447.625,135" id="id_Observation_EmissionPoint_4" class="edge-thickness-normal edge-pattern-solid relation" style=";;;" data-edge="true" data-et="edge" data-id="id_Observation_EmissionPoint_4" data-points="W3sieCI6MjkzLjU2MjUsInkiOjE2Ny44NjU1NjgwMjI0NDAzOX0seyJ4IjozNzMuNTkzNzUsInkiOjEzNX0seyJ4Ijo0NTMuNjI1LCJ5IjoxMzV9XQ==" marker-end="url(#my-svg_class-dependencyEnd)"/><path d="M293.563,310.927L306.901,318.814C320.24,326.701,346.917,342.476,394.966,350.363C443.016,358.25,512.438,358.25,578.483,358.25C644.529,358.25,707.198,358.25,750.913,357.113C794.628,355.977,819.389,353.704,831.77,352.567L844.15,351.431" id="id_Observation_ObservableProperty_5" class="edge-thickness-normal edge-pattern-solid relation" style=";;;" data-edge="true" data-et="edge" data-id="id_Observation_ObservableProperty_5" data-points="W3sieCI6MjkzLjU2MjUsInkiOjMxMC45MjcxNzM5MTMwNDM1fSx7IngiOjM3My41OTM3NSwieSI6MzU4LjI1fSx7IngiOjU4MS44NTkzNzUsInkiOjM1OC4yNX0seyJ4Ijo3NjkuODY3MTg3NSwieSI6MzU4LjI1fSx7IngiOjg1MC4xMjUsInkiOjM1MC44ODI0NTI3NDEzMjQzfV0=" marker-end="url(#my-svg_class-dependencyEnd)"/></g><g class="edgeLabels"><g class="edgeLabel" transform="translate(769.8671875, 111.5)"><g class="label" data-id="id_EmissionPoint_Installation_1" transform="translate(-32.5546875, -13.5)"><foreignObject width="65.109375" height="27"><div xmlns="http://www.w3.org/1999/xhtml" class="labelBkg" style="display: table-cell; white-space: nowrap; line-height: 1.5; max-width: 200px; text-align: center;"><span class="edgeLabel"><p>location</p></span></div></foreignObject></g></g><g class="edgeLabel" transform="translate(1134.8984375, 111.5)"><g class="label" data-id="id_Installation_Operator_2" transform="translate(-34.875, -13.5)"><foreignObject width="69.75" height="27"><div xmlns="http://www.w3.org/1999/xhtml" class="labelBkg" style="display: table-cell; white-space: nowrap; line-height: 1.5; max-width: 200px; text-align: center;"><span class="edgeLabel"><p>operator</p></span></div></foreignObject></g></g><g class="edgeLabel" transform="translate(769.8671875, 250)"><g class="label" data-id="id_EmissionPoint_ObservableProperty_3" transform="translate(-34.7734375, -13.5)"><foreignObject width="69.546875" height="27"><div xmlns="http://www.w3.org/1999/xhtml" class="labelBkg" style="display: table-cell; white-space: nowrap; line-height: 1.5; max-width: 200px; text-align: center;"><span class="edgeLabel"><p>property</p></span></div></foreignObject></g></g><g class="edgeLabel" transform="translate(373.59375, 135)"><g class="label" data-id="id_Observation_EmissionPoint_4" transform="translate(-55.03125, -13.5)"><foreignObject width="110.0625" height="27"><div xmlns="http://www.w3.org/1999/xhtml" class="labelBkg" style="display: table-cell; white-space: nowrap; line-height: 1.5; max-width: 200px; text-align: center;"><span class="edgeLabel"><p>emissionPoint</p></span></div></foreignObject></g></g><g class="edgeLabel" transform="translate(581.859375, 358.25)"><g class="label" data-id="id_Observation_ObservableProperty_5" transform="translate(-70.578125, -13.5)"><foreignObject width="141.15625" height="27"><div xmlns="http://www.w3.org/1999/xhtml" class="labelBkg" style="display: table-cell; white-space: nowrap; line-height: 1.5; max-width: 200px; text-align: center;"><span class="edgeLabel"><p>observedProperty</p></span></div></foreignObject></g></g></g><g class="nodes"><g class="node default exploitant" id="classId-Operator-0" transform="translate(1312.859375, 111.5)"><g class="basic label-container"><path d="M-118.0859375 -90 L118.0859375 -90 L118.0859375 90 L-118.0859375 90" stroke="none" stroke-width="0" fill="#f6ff00" style="fill:#f6ff00;stroke:#000000"/><path d="M-118.0859375 -90 C-61.84489687013498 -90, -5.6038562402699625 -90, 118.0859375 -90 M-118.0859375 -90 C-50.99690631211418 -90, 16.092124875771646 -90, 118.0859375 -90 M118.0859375 -90 C118.0859375 -30.4944016562778, 118.0859375 29.011196687444397, 118.0859375 90 M118.0859375 -90 C118.0859375 -45.766166016002344, 118.0859375 -1.532332032004689, 118.0859375 90 M118.0859375 90 C25.305405147717252 90, -67.4751272045655 90, -118.0859375 90 M118.0859375 90 C32.867994604559925 90, -52.34994829088015 90, -118.0859375 90 M-118.0859375 90 C-118.0859375 36.352045253757424, -118.0859375 -17.29590949248515, -118.0859375 -90 M-118.0859375 90 C-118.0859375 27.76735855076481, -118.0859375 -34.46528289847038, -118.0859375 -90" stroke="#000000" stroke-width="1.3" fill="none" stroke-dasharray="0 0" style="fill:#f6ff00;stroke:#000000"/></g><g class="annotation-group text" transform="translate(0, -66)"/><g class="label-group text" transform="translate(-37.609375, -66)"><g class="label" style="font-weight: bolder" transform="translate(0,-13.5)"><foreignObject width="75.21875" height="27"><div xmlns="http://www.w3.org/1999/xhtml" style="display: table-cell; white-space: nowrap; line-height: 1.5; max-width: 107px; text-align: center;"><span class="nodeLabel markdown-node-label" style="fill:#f6ff00;stroke:#000000"><p>Operator</p></span></div></foreignObject></g></g><g class="members-group text" transform="translate(-106.0859375, -15)"><g class="label" style="" transform="translate(0,-13.5)"><foreignObject width="96.5" height="27"><div xmlns="http://www.w3.org/1999/xhtml" style="display: table-cell; white-space: nowrap; line-height: 1.5; max-width: 135px; text-align: center;"><span class="nodeLabel markdown-node-label" style="fill:#f6ff00;stroke:#000000"><p>+String uuid</p></span></div></foreignObject></g><g class="label" style="" transform="translate(0,13.5)"><foreignObject width="174.5625" height="27"><div xmlns="http://www.w3.org/1999/xhtml" style="display: table-cell; white-space: nowrap; line-height: 1.5; max-width: 201px; text-align: center;"><span class="nodeLabel markdown-node-label" style="fill:#f6ff00;stroke:#000000"><p>+LocalDate validFrom</p></span></div></foreignObject></g><g class="label" style="" transform="translate(0,40.5)"><foreignObject width="92.140625" height="27"><div xmlns="http://www.w3.org/1999/xhtml" style="display: table-cell; white-space: nowrap; line-height: 1.5; max-width: 124px; text-align: center;"><span class="nodeLabel markdown-node-label" style="fill:#f6ff00;stroke:#000000"><p>String label</p></span></div></foreignObject></g></g><g class="methods-group text" transform="translate(-106.0859375, 90)"/><g class="divider" style="fill:#f6ff00;stroke:#000000"><path d="M-118.0859375 -39 C-45.66811951807786 -39, 26.749698463844283 -39, 118.0859375 -39 M-118.0859375 -39 C-40.340483678123306 -39, 37.40497014375339 -39, 118.0859375 -39" stroke="#000000" stroke-width="1.3" fill="none" stroke-dasharray="0 0" style="fill:#f6ff00;stroke:#000000"/></g><g class="divider" style="fill:#f6ff00;stroke:#000000"><path d="M-118.0859375 66 C-66.23310845389808 66, -14.380279407796166 66, 118.0859375 66 M-118.0859375 66 C-48.67196464607849 66, 20.742008207843014 66, 118.0859375 66" stroke="#000000" stroke-width="1.3" fill="none" stroke-dasharray="0 0" style="fill:#f6ff00;stroke:#000000"/></g></g><g class="node default exploitant" id="classId-Installation-1" transform="translate(952.33203125, 111.5)"><g class="basic label-container"><path d="M-122.69140625 -103.5 L122.69140625 -103.5 L122.69140625 103.5 L-122.69140625 103.5" stroke="none" stroke-width="0" fill="#f6ff00" style="fill:#f6ff00;stroke:#000000"/><path d="M-122.69140625 -103.5 C-27.16627762576249 -103.5, 68.35885099847502 -103.5, 122.69140625 -103.5 M-122.69140625 -103.5 C-68.64157750915368 -103.5, -14.59174876830734 -103.5, 122.69140625 -103.5 M122.69140625 -103.5 C122.69140625 -34.63707761325108, 122.69140625 34.22584477349784, 122.69140625 103.5 M122.69140625 -103.5 C122.69140625 -42.99440760172169, 122.69140625 17.51118479655662, 122.69140625 103.5 M122.69140625 103.5 C41.89303473996836 103.5, -38.905336770063286 103.5, -122.69140625 103.5 M122.69140625 103.5 C32.85009588087789 103.5, -56.991214488244225 103.5, -122.69140625 103.5 M-122.69140625 103.5 C-122.69140625 47.57403286370017, -122.69140625 -8.351934272599664, -122.69140625 -103.5 M-122.69140625 103.5 C-122.69140625 22.62858387629187, -122.69140625 -58.24283224741626, -122.69140625 -103.5" stroke="#000000" stroke-width="1.3" fill="none" stroke-dasharray="0 0" style="fill:#f6ff00;stroke:#000000"/></g><g class="annotation-group text" transform="translate(0, -79.5)"/><g class="label-group text" transform="translate(-46.8203125, -79.5)"><g class="label" style="font-weight: bolder" transform="translate(0,-13.5)"><foreignObject width="93.640625" height="27"><div xmlns="http://www.w3.org/1999/xhtml" style="display: table-cell; white-space: nowrap; line-height: 1.5; max-width: 122px; text-align: center;"><span class="nodeLabel markdown-node-label" style="fill:#f6ff00;stroke:#000000"><p>Installation</p></span></div></foreignObject></g></g><g class="members-group text" transform="translate(-110.69140625, -28.5)"><g class="label" style="" transform="translate(0,-13.5)"><foreignObject width="96.5" height="27"><div xmlns="http://www.w3.org/1999/xhtml" style="display: table-cell; white-space: nowrap; line-height: 1.5; max-width: 135px; text-align: center;"><span class="nodeLabel markdown-node-label" style="fill:#f6ff00;stroke:#000000"><p>+String uuid</p></span></div></foreignObject></g><g class="label" style="" transform="translate(0,13.5)"><foreignObject width="174.5625" height="27"><div xmlns="http://www.w3.org/1999/xhtml" style="display: table-cell; white-space: nowrap; line-height: 1.5; max-width: 201px; text-align: center;"><span class="nodeLabel markdown-node-label" style="fill:#f6ff00;stroke:#000000"><p>+LocalDate validFrom</p></span></div></foreignObject></g><g class="label" style="" transform="translate(0,40.5)"><foreignObject width="92.140625" height="27"><div xmlns="http://www.w3.org/1999/xhtml" style="display: table-cell; white-space: nowrap; line-height: 1.5; max-width: 124px; text-align: center;"><span class="nodeLabel markdown-node-label" style="fill:#f6ff00;stroke:#000000"><p>String label</p></span></div></foreignObject></g><g class="label" style="" transform="translate(0,67.5)"><foreignObject width="100.359375" height="27"><div xmlns="http://www.w3.org/1999/xhtml" style="display: table-cell; white-space: nowrap; line-height: 1.5; max-width: 130px; text-align: center;"><span class="nodeLabel markdown-node-label" style="fill:#f6ff00;stroke:#000000"><p>String status</p></span></div></foreignObject></g></g><g class="methods-group text" transform="translate(-110.69140625, 103.5)"/><g class="divider" style="fill:#f6ff00;stroke:#000000"><path d="M-122.69140625 -52.5 C-68.99477472886637 -52.5, -15.29814320773275 -52.5, 122.69140625 -52.5 M-122.69140625 -52.5 C-24.61682236957043 -52.5, 73.45776151085914 -52.5, 122.69140625 -52.5" stroke="#000000" stroke-width="1.3" fill="none" stroke-dasharray="0 0" style="fill:#f6ff00;stroke:#000000"/></g><g class="divider" style="fill:#f6ff00;stroke:#000000"><path d="M-122.69140625 79.5 C-51.1967470506667 79.5, 20.297912148666597 79.5, 122.69140625 79.5 M-122.69140625 79.5 C-48.5608255743835 79.5, 25.569755101233 79.5, 122.69140625 79.5" stroke="#000000" stroke-width="1.3" fill="none" stroke-dasharray="0 0" style="fill:#f6ff00;stroke:#000000"/></g></g><g class="node default system" id="classId-EmissionPoint-2" transform="translate(581.859375, 135)"><g class="basic label-container"><path d="M-128.234375 -117 L128.234375 -117 L128.234375 117 L-128.234375 117" stroke="none" stroke-width="0" fill="#4bde2a" style="fill:#4bde2a;stroke:#000000"/><path d="M-128.234375 -117 C-63.749114055094594 -117, 0.7361468898108114 -117, 128.234375 -117 M-128.234375 -117 C-57.20166608027684 -117, 13.831042839446326 -117, 128.234375 -117 M128.234375 -117 C128.234375 -47.29744998944206, 128.234375 22.405100021115885, 128.234375 117 M128.234375 -117 C128.234375 -32.73909003072528, 128.234375 51.52181993854944, 128.234375 117 M128.234375 117 C76.17103917189752 117, 24.107703343795052 117, -128.234375 117 M128.234375 117 C67.58020272068737 117, 6.926030441374749 117, -128.234375 117 M-128.234375 117 C-128.234375 23.51794663140818, -128.234375 -69.96410673718364, -128.234375 -117 M-128.234375 117 C-128.234375 48.26382550687971, -128.234375 -20.472348986240576, -128.234375 -117" stroke="#000000" stroke-width="1.3" fill="none" stroke-dasharray="0 0" style="fill:#4bde2a;stroke:#000000"/></g><g class="annotation-group text" transform="translate(0, -93)"/><g class="label-group text" transform="translate(-57.90625, -93)"><g class="label" style="font-weight: bolder" transform="translate(0,-13.5)"><foreignObject width="115.8125" height="27"><div xmlns="http://www.w3.org/1999/xhtml" style="display: table-cell; white-space: nowrap; line-height: 1.5; max-width: 143px; text-align: center;"><span class="nodeLabel markdown-node-label" style="fill:#4bde2a;stroke:#000000"><p>EmissionPoint</p></span></div></foreignObject></g></g><g class="members-group text" transform="translate(-116.234375, -42)"><g class="label" style="" transform="translate(0,-13.5)"><foreignObject width="96.5" height="27"><div xmlns="http://www.w3.org/1999/xhtml" style="display: table-cell; white-space: nowrap; line-height: 1.5; max-width: 135px; text-align: center;"><span class="nodeLabel markdown-node-label" style="fill:#4bde2a;stroke:#000000"><p>+String uuid</p></span></div></foreignObject></g><g class="label" style="" transform="translate(0,13.5)"><foreignObject width="174.5625" height="27"><div xmlns="http://www.w3.org/1999/xhtml" style="display: table-cell; white-space: nowrap; line-height: 1.5; max-width: 201px; text-align: center;"><span class="nodeLabel markdown-node-label" style="fill:#4bde2a;stroke:#000000"><p>+LocalDate validFrom</p></span></div></foreignObject></g><g class="label" style="" transform="translate(0,40.5)"><foreignObject width="92.140625" height="27"><div xmlns="http://www.w3.org/1999/xhtml" style="display: table-cell; white-space: nowrap; line-height: 1.5; max-width: 124px; text-align: center;"><span class="nodeLabel markdown-node-label" style="fill:#4bde2a;stroke:#000000"><p>String label</p></span></div></foreignObject></g><g class="label" style="" transform="translate(0,67.5)"><foreignObject width="100.359375" height="27"><div xmlns="http://www.w3.org/1999/xhtml" style="display: table-cell; white-space: nowrap; line-height: 1.5; max-width: 130px; text-align: center;"><span class="nodeLabel markdown-node-label" style="fill:#4bde2a;stroke:#000000"><p>String status</p></span></div></foreignObject></g><g class="label" style="" transform="translate(0,94.5)"><foreignObject width="128.5" height="27"><div xmlns="http://www.w3.org/1999/xhtml" style="display: table-cell; white-space: nowrap; line-height: 1.5; max-width: 154px; text-align: center;"><span class="nodeLabel markdown-node-label" style="fill:#4bde2a;stroke:#000000"><p>String geometry</p></span></div></foreignObject></g></g><g class="methods-group text" transform="translate(-116.234375, 117)"/><g class="divider" style="fill:#4bde2a;stroke:#000000"><path d="M-128.234375 -66 C-63.72539584633357 -66, 0.7835833073328615 -66, 128.234375 -66 M-128.234375 -66 C-40.74839985725491 -66, 46.73757528549018 -66, 128.234375 -66" stroke="#000000" stroke-width="1.3" fill="none" stroke-dasharray="0 0" style="fill:#4bde2a;stroke:#000000"/></g><g class="divider" style="fill:#4bde2a;stroke:#000000"><path d="M-128.234375 93 C-72.29491758756589 93, -16.355460175131768 93, 128.234375 93 M-128.234375 93 C-58.2060652239355 93, 11.822244552129007 93, 128.234375 93" stroke="#000000" stroke-width="1.3" fill="none" stroke-dasharray="0 0" style="fill:#4bde2a;stroke:#000000"/></g></g><g class="node default procedure" id="classId-ObservableProperty-3" transform="translate(952.33203125, 341.5)"><g class="basic label-container"><path d="M-102.20703125 -76.5 L102.20703125 -76.5 L102.20703125 76.5 L-102.20703125 76.5" stroke="none" stroke-width="0" fill="#ccffcc" style="fill:#ccffcc;stroke:#000000"/><path d="M-102.20703125 -76.5 C-54.923497453602685 -76.5, -7.639963657205371 -76.5, 102.20703125 -76.5 M-102.20703125 -76.5 C-60.23501443391835 -76.5, -18.262997617836703 -76.5, 102.20703125 -76.5 M102.20703125 -76.5 C102.20703125 -16.149236955634116, 102.20703125 44.20152608873177, 102.20703125 76.5 M102.20703125 -76.5 C102.20703125 -35.4479707730633, 102.20703125 5.604058453873407, 102.20703125 76.5 M102.20703125 76.5 C48.76603434037977 76.5, -4.6749625692404635 76.5, -102.20703125 76.5 M102.20703125 76.5 C33.71890801306614 76.5, -34.76921522386772 76.5, -102.20703125 76.5 M-102.20703125 76.5 C-102.20703125 44.381865067485236, -102.20703125 12.263730134970473, -102.20703125 -76.5 M-102.20703125 76.5 C-102.20703125 34.62041525478506, -102.20703125 -7.259169490429883, -102.20703125 -76.5" stroke="#000000" stroke-width="1.3" fill="none" stroke-dasharray="0 0" style="fill:#ccffcc;stroke:#000000"/></g><g class="annotation-group text" transform="translate(0, -52.5)"/><g class="label-group text" transform="translate(-83.9140625, -52.5)"><g class="label" style="font-weight: bolder" transform="translate(0,-13.5)"><foreignObject width="167.828125" height="27"><div xmlns="http://www.w3.org/1999/xhtml" style="display: table-cell; white-space: nowrap; line-height: 1.5; max-width: 178px; text-align: center;"><span class="nodeLabel markdown-node-label" style="fill:#ccffcc;stroke:#000000"><p>ObservableProperty</p></span></div></foreignObject></g></g><g class="members-group text" transform="translate(-90.20703125, -1.5)"><g class="label" style="" transform="translate(0,-13.5)"><foreignObject width="96.5" height="27"><div xmlns="http://www.w3.org/1999/xhtml" style="display: table-cell; white-space: nowrap; line-height: 1.5; max-width: 135px; text-align: center;"><span class="nodeLabel markdown-node-label" style="fill:#ccffcc;stroke:#000000"><p>+String uuid</p></span></div></foreignObject></g><g class="label" style="" transform="translate(0,13.5)"><foreignObject width="92.140625" height="27"><div xmlns="http://www.w3.org/1999/xhtml" style="display: table-cell; white-space: nowrap; line-height: 1.5; max-width: 124px; text-align: center;"><span class="nodeLabel markdown-node-label" style="fill:#ccffcc;stroke:#000000"><p>String label</p></span></div></foreignObject></g></g><g class="methods-group text" transform="translate(-90.20703125, 76.5)"/><g class="divider" style="fill:#ccffcc;stroke:#000000"><path d="M-102.20703125 -25.5 C-23.841077601851197 -25.5, 54.52487604629761 -25.5, 102.20703125 -25.5 M-102.20703125 -25.5 C-53.55238834905346 -25.5, -4.897745448106917 -25.5, 102.20703125 -25.5" stroke="#000000" stroke-width="1.3" fill="none" stroke-dasharray="0 0" style="fill:#ccffcc;stroke:#000000"/></g><g class="divider" style="fill:#ccffcc;stroke:#000000"><path d="M-102.20703125 52.5 C-27.293442352943458 52.5, 47.620146544113084 52.5, 102.20703125 52.5 M-102.20703125 52.5 C-52.290972185283124 52.5, -2.374913120566248 52.5, 102.20703125 52.5" stroke="#000000" stroke-width="1.3" fill="none" stroke-dasharray="0 0" style="fill:#ccffcc;stroke:#000000"/></g></g><g class="node default result" id="classId-Observation-4" transform="translate(150.78125, 226.5)"><g class="basic label-container"><path d="M-142.78125 -90 L142.78125 -90 L142.78125 90 L-142.78125 90" stroke="none" stroke-width="0" fill="#ccccff" style="fill:#ccccff;stroke:#000000"/><path d="M-142.78125 -90 C-32.14280879212954 -90, 78.49563241574091 -90, 142.78125 -90 M-142.78125 -90 C-75.28863826254084 -90, -7.796026525081686 -90, 142.78125 -90 M142.78125 -90 C142.78125 -47.5958694732542, 142.78125 -5.191738946508394, 142.78125 90 M142.78125 -90 C142.78125 -45.342023461529415, 142.78125 -0.6840469230588297, 142.78125 90 M142.78125 90 C39.478472992001855 90, -63.82430401599629 90, -142.78125 90 M142.78125 90 C76.43167184328584 90, 10.082093686571682 90, -142.78125 90 M-142.78125 90 C-142.78125 33.204152559943246, -142.78125 -23.591694880113508, -142.78125 -90 M-142.78125 90 C-142.78125 32.869208228586444, -142.78125 -24.26158354282711, -142.78125 -90" stroke="#000000" stroke-width="1.3" fill="none" stroke-dasharray="0 0" style="fill:#ccccff;stroke:#000000"/></g><g class="annotation-group text" transform="translate(0, -66)"/><g class="label-group text" transform="translate(-50.65625, -66)"><g class="label" style="font-weight: bolder" transform="translate(0,-13.5)"><foreignObject width="101.3125" height="27"><div xmlns="http://www.w3.org/1999/xhtml" style="display: table-cell; white-space: nowrap; line-height: 1.5; max-width: 128px; text-align: center;"><span class="nodeLabel markdown-node-label" style="fill:#ccccff;stroke:#000000"><p>Observation</p></span></div></foreignObject></g></g><g class="members-group text" transform="translate(-130.78125, -15)"><g class="label" style="" transform="translate(0,-13.5)"><foreignObject width="96.5" height="27"><div xmlns="http://www.w3.org/1999/xhtml" style="display: table-cell; white-space: nowrap; line-height: 1.5; max-width: 135px; text-align: center;"><span class="nodeLabel markdown-node-label" style="fill:#ccccff;stroke:#000000"><p>+String uuid</p></span></div></foreignObject></g><g class="label" style="" transform="translate(0,13.5)"><foreignObject width="174.5625" height="27"><div xmlns="http://www.w3.org/1999/xhtml" style="display: table-cell; white-space: nowrap; line-height: 1.5; max-width: 201px; text-align: center;"><span class="nodeLabel markdown-node-label" style="fill:#ccccff;stroke:#000000"><p>+LocalDate validFrom</p></span></div></foreignObject></g><g class="label" style="" transform="translate(0,40.5)"><foreignObject width="210.90625" height="27"><div xmlns="http://www.w3.org/1999/xhtml" style="display: table-cell; white-space: nowrap; line-height: 1.5; max-width: 223px; text-align: center;"><span class="nodeLabel markdown-node-label" style="fill:#ccccff;stroke:#000000"><p>LocalDateTime resultTime</p></span></div></foreignObject></g></g><g class="methods-group text" transform="translate(-130.78125, 90)"/><g class="divider" style="fill:#ccccff;stroke:#000000"><path d="M-142.78125 -39 C-82.04726699774952 -39, -21.313283995499035 -39, 142.78125 -39 M-142.78125 -39 C-46.55804118663997 -39, 49.66516762672006 -39, 142.78125 -39" stroke="#000000" stroke-width="1.3" fill="none" stroke-dasharray="0 0" style="fill:#ccccff;stroke:#000000"/></g><g class="divider" style="fill:#ccccff;stroke:#000000"><path d="M-142.78125 66 C-64.76396912489308 66, 13.25331175021384 66, 142.78125 66 M-142.78125 66 C-73.37830026221889 66, -3.975350524437772 66, 142.78125 66" stroke="#000000" stroke-width="1.3" fill="none" stroke-dasharray="0 0" style="fill:#ccccff;stroke:#000000"/></g></g></g></g></g></svg>