<svg xmlns="http://www.w3.org/2000/svg" xml:space="preserve" xmlns:xlink="http://www.w3.org/1999/xlink" style="max-width: 100%;height: auto;" width="984" height="984" viewBox="0 0 984 984">
<rect width="984" height="984" fill="#F2F2F2" x="0" y="0"></rect>
<g fill="#000000">
<g transform="translate(240,48) scale(4.12)"><rect width="6" height="6"></rect></g>
<g transform="translate(360,48) scale(4.12)"><rect width="6" height="6"></rect></g>
<g transform="translate(384,48) scale(4.12)"><rect width="6" height="6"></rect></g>
<g transform="translate(432,48) scale(4.12)"><rect width="6" height="6"></rect></g>
<g transform="translate(480,48) scale(4.12)"><rect width="6" height="6"></rect></g>
<g transform="translate(504,48) scale(4.12)"><rect width="6" height="6"></rect></g>
<g transform="translate(600,48) scale(4.12)"><rect width="6" height="6"></rect></g>
<g transform="translate(624,48) scale(4.12)"><rect width="6" height="6"></rect></g>
<g transform="translate(720,48) scale(4.12)"><rect width="6" height="6"></rect></g>
<g transform="translate(240,72) scale(4.12)"><rect width="6" height="6"></rect></g>
<g transform="translate(264,72) scale(4.12)"><rect width="6" height="6"></rect></g>
<g transform="translate(432,72) scale(4.12)"><rect width="6" height="6"></rect></g>
<g transform="translate(480,72) scale(4.12)"><rect width="6" height="6"></rect></g>
<g transform="translate(504,72) scale(4.12)"><rect width="6" height="6"></rect></g>
<g transform="translate(528,72) scale(4.12)"><rect width="6" height="6"></rect></g>
<g transform="translate(600,72) scale(4.12)"><rect width="6" height="6"></rect></g>
<g transform="translate(672,72) scale(4.12)"><rect width="6" height="6"></rect></g>
<g transform="translate(696,72) scale(4.12)"><rect width="6" height="6"></rect></g>
<g transform="translate(240,96) scale(4.12)"><rect width="6" height="6"></rect></g>
<g transform="translate(288,96) scale(4.12)"><rect width="6" height="6"></rect></g>
<g transform="translate(360,96) scale(4.12)"><rect width="6" height="6"></rect></g>
<g transform="translate(384,96) scale(4.12)"><rect width="6" height="6"></rect></g>
<g transform="translate(456,96) scale(4.12)"><rect width="6" height="6"></rect></g>
<g transform="translate(504,96) scale(4.12)"><rect width="6" height="6"></rect></g>
<g transform="translate(552,96) scale(4.12)"><rect width="6" height="6"></rect></g>
<g transform="translate(672,96) scale(4.12)"><rect width="6" height="6"></rect></g>
<g transform="translate(696,96) scale(4.12)"><rect width="6" height="6"></rect></g>
<g transform="translate(720,96) scale(4.12)"><rect width="6" height="6"></rect></g>
<g transform="translate(264,120) scale(4.12)"><rect width="6" height="6"></rect></g>
<g transform="translate(288,120) scale(4.12)"><rect width="6" height="6"></rect></g>
<g transform="translate(336,120) scale(4.12)"><rect width="6" height="6"></rect></g>
<g transform="translate(360,120) scale(4.12)"><rect width="6" height="6"></rect></g>
<g transform="translate(384,120) scale(4.12)"><rect width="6" height="6"></rect></g>
<g transform="translate(456,120) scale(4.12)"><rect width="6" height="6"></rect></g>
<g transform="translate(480,120) scale(4.12)"><rect width="6" height="6"></rect></g>
<g transform="translate(576,120) scale(4.12)"><rect width="6" height="6"></rect></g>
<g transform="translate(624,120) scale(4.12)"><rect width="6" height="6"></rect></g>
<g transform="translate(648,120) scale(4.12)"><rect width="6" height="6"></rect></g>
<g transform="translate(672,120) scale(4.12)"><rect width="6" height="6"></rect></g>
<g transform="translate(696,120) scale(4.12)"><rect width="6" height="6"></rect></g>
<g transform="translate(720,120) scale(4.12)"><rect width="6" height="6"></rect></g>
<g transform="translate(264,144) scale(4.12)"><rect width="6" height="6"></rect></g>
<g transform="translate(312,144) scale(4.12)"><rect width="6" height="6"></rect></g>
<g transform="translate(408,144) scale(4.12)"><rect width="6" height="6"></rect></g>
<g transform="translate(528,144) scale(4.12)"><rect width="6" height="6"></rect></g>
<g transform="translate(552,144) scale(4.12)"><rect width="6" height="6"></rect></g>
<g transform="translate(576,144) scale(4.12)"><rect width="6" height="6"></rect></g>
<g transform="translate(600,144) scale(4.12)"><rect width="6" height="6"></rect></g>
<g transform="translate(648,144) scale(4.12)"><rect width="6" height="6"></rect></g>
<g transform="translate(720,144) scale(4.12)"><rect width="6" height="6"></rect></g>
<g transform="translate(240,168) scale(4.12)"><rect width="6" height="6"></rect></g>
<g transform="translate(288,168) scale(4.12)"><rect width="6" height="6"></rect></g>
<g transform="translate(312,168) scale(4.12)"><rect width="6" height="6"></rect></g>
<g transform="translate(432,168) scale(4.12)"><rect width="6" height="6"></rect></g>
<g transform="translate(504,168) scale(4.12)"><rect width="6" height="6"></rect></g>
<g transform="translate(552,168) scale(4.12)"><rect width="6" height="6"></rect></g>
<g transform="translate(648,168) scale(4.12)"><rect width="6" height="6"></rect></g>
<g transform="translate(672,168) scale(4.12)"><rect width="6" height="6"></rect></g>
<g transform="translate(696,168) scale(4.12)"><rect width="6" height="6"></rect></g>
<g transform="translate(720,168) scale(4.12)"><rect width="6" height="6"></rect></g>
<g transform="translate(240,192) scale(4.12)"><rect width="6" height="6"></rect></g>
<g transform="translate(288,192) scale(4.12)"><rect width="6" height="6"></rect></g>
<g transform="translate(336,192) scale(4.12)"><rect width="6" height="6"></rect></g>
<g transform="translate(384,192) scale(4.12)"><rect width="6" height="6"></rect></g>
<g transform="translate(432,192) scale(4.12)"><rect width="6" height="6"></rect></g>
<g transform="translate(480,192) scale(4.12)"><rect width="6" height="6"></rect></g>
<g transform="translate(528,192) scale(4.12)"><rect width="6" height="6"></rect></g>
<g transform="translate(576,192) scale(4.12)"><rect width="6" height="6"></rect></g>
<g transform="translate(624,192) scale(4.12)"><rect width="6" height="6"></rect></g>
<g transform="translate(672,192) scale(4.12)"><rect width="6" height="6"></rect></g>
<g transform="translate(720,192) scale(4.12)"><rect width="6" height="6"></rect></g>
<g transform="translate(240,216) scale(4.12)"><rect width="6" height="6"></rect></g>
<g transform="translate(264,216) scale(4.12)"><rect width="6" height="6"></rect></g>
<g transform="translate(288,216) scale(4.12)"><rect width="6" height="6"></rect></g>
<g transform="translate(408,216) scale(4.12)"><rect width="6" height="6"></rect></g>
<g transform="translate(432,216) scale(4.12)"><rect width="6" height="6"></rect></g>
<g transform="translate(504,216) scale(4.12)"><rect width="6" height="6"></rect></g>
<g transform="translate(552,216) scale(4.12)"><rect width="6" height="6"></rect></g>
<g transform="translate(600,216) scale(4.12)"><rect width="6" height="6"></rect></g>
<g transform="translate(624,216) scale(4.12)"><rect width="6" height="6"></rect></g>
<g transform="translate(648,216) scale(4.12)"><rect width="6" height="6"></rect></g>
<g transform="translate(720,216) scale(4.12)"><rect width="6" height="6"></rect></g>
<g transform="translate(96,240) scale(4.12)"><rect width="6" height="6"></rect></g>
<g transform="translate(120,240) scale(4.12)"><rect width="6" height="6"></rect></g>
<g transform="translate(144,240) scale(4.12)"><rect width="6" height="6"></rect></g>
<g transform="translate(192,240) scale(4.12)"><rect width="6" height="6"></rect></g>
<g transform="translate(240,240) scale(4.12)"><rect width="6" height="6"></rect></g>
<g transform="translate(288,240) scale(4.12)"><rect width="6" height="6"></rect></g>
<g transform="translate(336,240) scale(4.12)"><rect width="6" height="6"></rect></g>
<g transform="translate(384,240) scale(4.12)"><rect width="6" height="6"></rect></g>
<g transform="translate(456,240) scale(4.12)"><rect width="6" height="6"></rect></g>
<g transform="translate(504,240) scale(4.12)"><rect width="6" height="6"></rect></g>
<g transform="translate(576,240) scale(4.12)"><rect width="6" height="6"></rect></g>
<g transform="translate(600,240) scale(4.12)"><rect width="6" height="6"></rect></g>
<g transform="translate(672,240) scale(4.12)"><rect width="6" height="6"></rect></g>
<g transform="translate(744,240) scale(4.12)"><rect width="6" height="6"></rect></g>
<g transform="translate(768,240) scale(4.12)"><rect width="6" height="6"></rect></g>
<g transform="translate(792,240) scale(4.12)"><rect width="6" height="6"></rect></g>
<g transform="translate(864,240) scale(4.12)"><rect width="6" height="6"></rect></g>
<g transform="translate(888,240) scale(4.12)"><rect width="6" height="6"></rect></g>
<g transform="translate(912,240) scale(4.12)"><rect width="6" height="6"></rect></g>
<g transform="translate(72,264) scale(4.12)"><rect width="6" height="6"></rect></g>
<g transform="translate(168,264) scale(4.12)"><rect width="6" height="6"></rect></g>
<g transform="translate(216,264) scale(4.12)"><rect width="6" height="6"></rect></g>
<g transform="translate(264,264) scale(4.12)"><rect width="6" height="6"></rect></g>
<g transform="translate(288,264) scale(4.12)"><rect width="6" height="6"></rect></g>
<g transform="translate(336,264) scale(4.12)"><rect width="6" height="6"></rect></g>
<g transform="translate(360,264) scale(4.12)"><rect width="6" height="6"></rect></g>
<g transform="translate(408,264) scale(4.12)"><rect width="6" height="6"></rect></g>
<g transform="translate(432,264) scale(4.12)"><rect width="6" height="6"></rect></g>
<g transform="translate(504,264) scale(4.12)"><rect width="6" height="6"></rect></g>
<g transform="translate(552,264) scale(4.12)"><rect width="6" height="6"></rect></g>
<g transform="translate(576,264) scale(4.12)"><rect width="6" height="6"></rect></g>
<g transform="translate(600,264) scale(4.12)"><rect width="6" height="6"></rect></g>
<g transform="translate(624,264) scale(4.12)"><rect width="6" height="6"></rect></g>
<g transform="translate(696,264) scale(4.12)"><rect width="6" height="6"></rect></g>
<g transform="translate(744,264) scale(4.12)"><rect width="6" height="6"></rect></g>
<g transform="translate(768,264) scale(4.12)"><rect width="6" height="6"></rect></g>
<g transform="translate(840,264) scale(4.12)"><rect width="6" height="6"></rect></g>
<g transform="translate(864,264) scale(4.12)"><rect width="6" height="6"></rect></g>
<g transform="translate(48,288) scale(4.12)"><rect width="6" height="6"></rect></g>
<g transform="translate(72,288) scale(4.12)"><rect width="6" height="6"></rect></g>
<g transform="translate(168,288) scale(4.12)"><rect width="6" height="6"></rect></g>
<g transform="translate(192,288) scale(4.12)"><rect width="6" height="6"></rect></g>
<g transform="translate(240,288) scale(4.12)"><rect width="6" height="6"></rect></g>
<g transform="translate(264,288) scale(4.12)"><rect width="6" height="6"></rect></g>
<g transform="translate(408,288) scale(4.12)"><rect width="6" height="6"></rect></g>
<g transform="translate(504,288) scale(4.12)"><rect width="6" height="6"></rect></g>
<g transform="translate(528,288) scale(4.12)"><rect width="6" height="6"></rect></g>
<g transform="translate(576,288) scale(4.12)"><rect width="6" height="6"></rect></g>
<g transform="translate(696,288) scale(4.12)"><rect width="6" height="6"></rect></g>
<g transform="translate(768,288) scale(4.12)"><rect width="6" height="6"></rect></g>
<g transform="translate(888,288) scale(4.12)"><rect width="6" height="6"></rect></g>
<g transform="translate(912,288) scale(4.12)"><rect width="6" height="6"></rect></g>
<g transform="translate(48,312) scale(4.12)"><rect width="6" height="6"></rect></g>
<g transform="translate(72,312) scale(4.12)"><rect width="6" height="6"></rect></g>
<g transform="translate(96,312) scale(4.12)"><rect width="6" height="6"></rect></g>
<g transform="translate(120,312) scale(4.12)"><rect width="6" height="6"></rect></g>
<g transform="translate(144,312) scale(4.12)"><rect width="6" height="6"></rect></g>
<g transform="translate(168,312) scale(4.12)"><rect width="6" height="6"></rect></g>
<g transform="translate(216,312) scale(4.12)"><rect width="6" height="6"></rect></g>
<g transform="translate(240,312) scale(4.12)"><rect width="6" height="6"></rect></g>
<g transform="translate(312,312) scale(4.12)"><rect width="6" height="6"></rect></g>
<g transform="translate(336,312) scale(4.12)"><rect width="6" height="6"></rect></g>
<g transform="translate(384,312) scale(4.12)"><rect width="6" height="6"></rect></g>
<g transform="translate(480,312) scale(4.12)"><rect width="6" height="6"></rect></g>
<g transform="translate(504,312) scale(4.12)"><rect width="6" height="6"></rect></g>
<g transform="translate(552,312) scale(4.12)"><rect width="6" height="6"></rect></g>
<g transform="translate(696,312) scale(4.12)"><rect width="6" height="6"></rect></g>
<g transform="translate(768,312) scale(4.12)"><rect width="6" height="6"></rect></g>
<g transform="translate(888,312) scale(4.12)"><rect width="6" height="6"></rect></g>
<g transform="translate(48,336) scale(4.12)"><rect width="6" height="6"></rect></g>
<g transform="translate(72,336) scale(4.12)"><rect width="6" height="6"></rect></g>
<g transform="translate(144,336) scale(4.12)"><rect width="6" height="6"></rect></g>
<g transform="translate(168,336) scale(4.12)"><rect width="6" height="6"></rect></g>
<g transform="translate(192,336) scale(4.12)"><rect width="6" height="6"></rect></g>
<g transform="translate(216,336) scale(4.12)"><rect width="6" height="6"></rect></g>
<g transform="translate(240,336) scale(4.12)"><rect width="6" height="6"></rect></g>
<g transform="translate(288,336) scale(4.12)"><rect width="6" height="6"></rect></g>
<g transform="translate(312,336) scale(4.12)"><rect width="6" height="6"></rect></g>
<g transform="translate(360,336) scale(4.12)"><rect width="6" height="6"></rect></g>
<g transform="translate(384,336) scale(4.12)"><rect width="6" height="6"></rect></g>
<g transform="translate(408,336) scale(4.12)"><rect width="6" height="6"></rect></g>
<g transform="translate(480,336) scale(4.12)"><rect width="6" height="6"></rect></g>
<g transform="translate(576,336) scale(4.12)"><rect width="6" height="6"></rect></g>
<g transform="translate(624,336) scale(4.12)"><rect width="6" height="6"></rect></g>
<g transform="translate(648,336) scale(4.12)"><rect width="6" height="6"></rect></g>
<g transform="translate(672,336) scale(4.12)"><rect width="6" height="6"></rect></g>
<g transform="translate(696,336) scale(4.12)"><rect width="6" height="6"></rect></g>
<g transform="translate(768,336) scale(4.12)"><rect width="6" height="6"></rect></g>
<g transform="translate(792,336) scale(4.12)"><rect width="6" height="6"></rect></g>
<g transform="translate(816,336) scale(4.12)"><rect width="6" height="6"></rect></g>
<g transform="translate(840,336) scale(4.12)"><rect width="6" height="6"></rect></g>
<g transform="translate(864,336) scale(4.12)"><rect width="6" height="6"></rect></g>
<g transform="translate(888,336) scale(4.12)"><rect width="6" height="6"></rect></g>
<g transform="translate(72,360) scale(4.12)"><rect width="6" height="6"></rect></g>
<g transform="translate(96,360) scale(4.12)"><rect width="6" height="6"></rect></g>
<g transform="translate(144,360) scale(4.12)"><rect width="6" height="6"></rect></g>
<g transform="translate(168,360) scale(4.12)"><rect width="6" height="6"></rect></g>
<g transform="translate(264,360) scale(4.12)"><rect width="6" height="6"></rect></g>
<g transform="translate(288,360) scale(4.12)"><rect width="6" height="6"></rect></g>
<g transform="translate(312,360) scale(4.12)"><rect width="6" height="6"></rect></g>
<g transform="translate(432,360) scale(4.12)"><rect width="6" height="6"></rect></g>
<g transform="translate(528,360) scale(4.12)"><rect width="6" height="6"></rect></g>
<g transform="translate(600,360) scale(4.12)"><rect width="6" height="6"></rect></g>
<g transform="translate(672,360) scale(4.12)"><rect width="6" height="6"></rect></g>
<g transform="translate(720,360) scale(4.12)"><rect width="6" height="6"></rect></g>
<g transform="translate(744,360) scale(4.12)"><rect width="6" height="6"></rect></g>
<g transform="translate(792,360) scale(4.12)"><rect width="6" height="6"></rect></g>
<g transform="translate(840,360) scale(4.12)"><rect width="6" height="6"></rect></g>
<g transform="translate(864,360) scale(4.12)"><rect width="6" height="6"></rect></g>
<g transform="translate(48,384) scale(4.12)"><rect width="6" height="6"></rect></g>
<g transform="translate(72,384) scale(4.12)"><rect width="6" height="6"></rect></g>
<g transform="translate(192,384) scale(4.12)"><rect width="6" height="6"></rect></g>
<g transform="translate(216,384) scale(4.12)"><rect width="6" height="6"></rect></g>
<g transform="translate(288,384) scale(4.12)"><rect width="6" height="6"></rect></g>
<g transform="translate(312,384) scale(4.12)"><rect width="6" height="6"></rect></g>
<g transform="translate(336,384) scale(4.12)"><rect width="6" height="6"></rect></g>
<g transform="translate(360,384) scale(4.12)"><rect width="6" height="6"></rect></g>
<g transform="translate(432,384) scale(4.12)"><rect width="6" height="6"></rect></g>
<g transform="translate(456,384) scale(4.12)"><rect width="6" height="6"></rect></g>
<g transform="translate(528,384) scale(4.12)"><rect width="6" height="6"></rect></g>
<g transform="translate(576,384) scale(4.12)"><rect width="6" height="6"></rect></g>
<g transform="translate(672,384) scale(4.12)"><rect width="6" height="6"></rect></g>
<g transform="translate(696,384) scale(4.12)"><rect width="6" height="6"></rect></g>
<g transform="translate(720,384) scale(4.12)"><rect width="6" height="6"></rect></g>
<g transform="translate(744,384) scale(4.12)"><rect width="6" height="6"></rect></g>
<g transform="translate(768,384) scale(4.12)"><rect width="6" height="6"></rect></g>
<g transform="translate(792,384) scale(4.12)"><rect width="6" height="6"></rect></g>
<g transform="translate(840,384) scale(4.12)"><rect width="6" height="6"></rect></g>
<g transform="translate(912,384) scale(4.12)"><rect width="6" height="6"></rect></g>
<g transform="translate(96,408) scale(4.12)"><rect width="6" height="6"></rect></g>
<g transform="translate(144,408) scale(4.12)"><rect width="6" height="6"></rect></g>
<g transform="translate(216,408) scale(4.12)"><rect width="6" height="6"></rect></g>
<g transform="translate(240,408) scale(4.12)"><rect width="6" height="6"></rect></g>
<g transform="translate(264,408) scale(4.12)"><rect width="6" height="6"></rect></g>
<g transform="translate(312,408) scale(4.12)"><rect width="6" height="6"></rect></g>
<g transform="translate(384,408) scale(4.12)"><rect width="6" height="6"></rect></g>
<g transform="translate(408,408) scale(4.12)"><rect width="6" height="6"></rect></g>
<g transform="translate(432,408) scale(4.12)"><rect width="6" height="6"></rect></g>
<g transform="translate(456,408) scale(4.12)"><rect width="6" height="6"></rect></g>
<g transform="translate(528,408) scale(4.12)"><rect width="6" height="6"></rect></g>
<g transform="translate(576,408) scale(4.12)"><rect width="6" height="6"></rect></g>
<g transform="translate(600,408) scale(4.12)"><rect width="6" height="6"></rect></g>
<g transform="translate(624,408) scale(4.12)"><rect width="6" height="6"></rect></g>
<g transform="translate(744,408) scale(4.12)"><rect width="6" height="6"></rect></g>
<g transform="translate(816,408) scale(4.12)"><rect width="6" height="6"></rect></g>
<g transform="translate(912,408) scale(4.12)"><rect width="6" height="6"></rect></g>
<g transform="translate(72,432) scale(4.12)"><rect width="6" height="6"></rect></g>
<g transform="translate(120,432) scale(4.12)"><rect width="6" height="6"></rect></g>
<g transform="translate(168,432) scale(4.12)"><rect width="6" height="6"></rect></g>
<g transform="translate(192,432) scale(4.12)"><rect width="6" height="6"></rect></g>
<g transform="translate(264,432) scale(4.12)"><rect width="6" height="6"></rect></g>
<g transform="translate(384,432) scale(4.12)"><rect width="6" height="6"></rect></g>
<g transform="translate(432,432) scale(4.12)"><rect width="6" height="6"></rect></g>
<g transform="translate(480,432) scale(4.12)"><rect width="6" height="6"></rect></g>
<g transform="translate(528,432) scale(4.12)"><rect width="6" height="6"></rect></g>
<g transform="translate(552,432) scale(4.12)"><rect width="6" height="6"></rect></g>
<g transform="translate(576,432) scale(4.12)"><rect width="6" height="6"></rect></g>
<g transform="translate(600,432) scale(4.12)"><rect width="6" height="6"></rect></g>
<g transform="translate(648,432) scale(4.12)"><rect width="6" height="6"></rect></g>
<g transform="translate(672,432) scale(4.12)"><rect width="6" height="6"></rect></g>
<g transform="translate(696,432) scale(4.12)"><rect width="6" height="6"></rect></g>
<g transform="translate(768,432) scale(4.12)"><rect width="6" height="6"></rect></g>
<g transform="translate(816,432) scale(4.12)"><rect width="6" height="6"></rect></g>
<g transform="translate(864,432) scale(4.12)"><rect width="6" height="6"></rect></g>
<g transform="translate(888,432) scale(4.12)"><rect width="6" height="6"></rect></g>
<g transform="translate(72,456) scale(4.12)"><rect width="6" height="6"></rect></g>
<g transform="translate(96,456) scale(4.12)"><rect width="6" height="6"></rect></g>
<g transform="translate(216,456) scale(4.12)"><rect width="6" height="6"></rect></g>
<g transform="translate(240,456) scale(4.12)"><rect width="6" height="6"></rect></g>
<g transform="translate(312,456) scale(4.12)"><rect width="6" height="6"></rect></g>
<g transform="translate(336,456) scale(4.12)"><rect width="6" height="6"></rect></g>
<g transform="translate(384,456) scale(4.12)"><rect width="6" height="6"></rect></g>
<g transform="translate(432,456) scale(4.12)"><rect width="6" height="6"></rect></g>
<g transform="translate(528,456) scale(4.12)"><rect width="6" height="6"></rect></g>
<g transform="translate(600,456) scale(4.12)"><rect width="6" height="6"></rect></g>
<g transform="translate(648,456) scale(4.12)"><rect width="6" height="6"></rect></g>
<g transform="translate(672,456) scale(4.12)"><rect width="6" height="6"></rect></g>
<g transform="translate(720,456) scale(4.12)"><rect width="6" height="6"></rect></g>
<g transform="translate(792,456) scale(4.12)"><rect width="6" height="6"></rect></g>
<g transform="translate(864,456) scale(4.12)"><rect width="6" height="6"></rect></g>
<g transform="translate(48,480) scale(4.12)"><rect width="6" height="6"></rect></g>
<g transform="translate(96,480) scale(4.12)"><rect width="6" height="6"></rect></g>
<g transform="translate(120,480) scale(4.12)"><rect width="6" height="6"></rect></g>
<g transform="translate(144,480) scale(4.12)"><rect width="6" height="6"></rect></g>
<g transform="translate(192,480) scale(4.12)"><rect width="6" height="6"></rect></g>
<g transform="translate(240,480) scale(4.12)"><rect width="6" height="6"></rect></g>
<g transform="translate(264,480) scale(4.12)"><rect width="6" height="6"></rect></g>
<g transform="translate(288,480) scale(4.12)"><rect width="6" height="6"></rect></g>
<g transform="translate(360,480) scale(4.12)"><rect width="6" height="6"></rect></g>
<g transform="translate(384,480) scale(4.12)"><rect width="6" height="6"></rect></g>
<g transform="translate(408,480) scale(4.12)"><rect width="6" height="6"></rect></g>
<g transform="translate(432,480) scale(4.12)"><rect width="6" height="6"></rect></g>
<g transform="translate(456,480) scale(4.12)"><rect width="6" height="6"></rect></g>
<g transform="translate(600,480) scale(4.12)"><rect width="6" height="6"></rect></g>
<g transform="translate(672,480) scale(4.12)"><rect width="6" height="6"></rect></g>
<g transform="translate(696,480) scale(4.12)"><rect width="6" height="6"></rect></g>
<g transform="translate(720,480) scale(4.12)"><rect width="6" height="6"></rect></g>
<g transform="translate(744,480) scale(4.12)"><rect width="6" height="6"></rect></g>
<g transform="translate(768,480) scale(4.12)"><rect width="6" height="6"></rect></g>
<g transform="translate(816,480) scale(4.12)"><rect width="6" height="6"></rect></g>
<g transform="translate(840,480) scale(4.12)"><rect width="6" height="6"></rect></g>
<g transform="translate(864,480) scale(4.12)"><rect width="6" height="6"></rect></g>
<g transform="translate(888,480) scale(4.12)"><rect width="6" height="6"></rect></g>
<g transform="translate(912,480) scale(4.12)"><rect width="6" height="6"></rect></g>
<g transform="translate(144,504) scale(4.12)"><rect width="6" height="6"></rect></g>
<g transform="translate(168,504) scale(4.12)"><rect width="6" height="6"></rect></g>
<g transform="translate(240,504) scale(4.12)"><rect width="6" height="6"></rect></g>
<g transform="translate(288,504) scale(4.12)"><rect width="6" height="6"></rect></g>
<g transform="translate(360,504) scale(4.12)"><rect width="6" height="6"></rect></g>
<g transform="translate(408,504) scale(4.12)"><rect width="6" height="6"></rect></g>
<g transform="translate(456,504) scale(4.12)"><rect width="6" height="6"></rect></g>
<g transform="translate(504,504) scale(4.12)"><rect width="6" height="6"></rect></g>
<g transform="translate(672,504) scale(4.12)"><rect width="6" height="6"></rect></g>
<g transform="translate(720,504) scale(4.12)"><rect width="6" height="6"></rect></g>
<g transform="translate(768,504) scale(4.12)"><rect width="6" height="6"></rect></g>
<g transform="translate(912,504) scale(4.12)"><rect width="6" height="6"></rect></g>
<g transform="translate(48,528) scale(4.12)"><rect width="6" height="6"></rect></g>
<g transform="translate(72,528) scale(4.12)"><rect width="6" height="6"></rect></g>
<g transform="translate(96,528) scale(4.12)"><rect width="6" height="6"></rect></g>
<g transform="translate(120,528) scale(4.12)"><rect width="6" height="6"></rect></g>
<g transform="translate(192,528) scale(4.12)"><rect width="6" height="6"></rect></g>
<g transform="translate(240,528) scale(4.12)"><rect width="6" height="6"></rect></g>
<g transform="translate(384,528) scale(4.12)"><rect width="6" height="6"></rect></g>
<g transform="translate(408,528) scale(4.12)"><rect width="6" height="6"></rect></g>
<g transform="translate(432,528) scale(4.12)"><rect width="6" height="6"></rect></g>
<g transform="translate(504,528) scale(4.12)"><rect width="6" height="6"></rect></g>
<g transform="translate(528,528) scale(4.12)"><rect width="6" height="6"></rect></g>
<g transform="translate(552,528) scale(4.12)"><rect width="6" height="6"></rect></g>
<g transform="translate(648,528) scale(4.12)"><rect width="6" height="6"></rect></g>
<g transform="translate(672,528) scale(4.12)"><rect width="6" height="6"></rect></g>
<g transform="translate(768,528) scale(4.12)"><rect width="6" height="6"></rect></g>
<g transform="translate(792,528) scale(4.12)"><rect width="6" height="6"></rect></g>
<g transform="translate(816,528) scale(4.12)"><rect width="6" height="6"></rect></g>
<g transform="translate(840,528) scale(4.12)"><rect width="6" height="6"></rect></g>
<g transform="translate(864,528) scale(4.12)"><rect width="6" height="6"></rect></g>
<g transform="translate(888,528) scale(4.12)"><rect width="6" height="6"></rect></g>
<g transform="translate(912,528) scale(4.12)"><rect width="6" height="6"></rect></g>
<g transform="translate(48,552) scale(4.12)"><rect width="6" height="6"></rect></g>
<g transform="translate(72,552) scale(4.12)"><rect width="6" height="6"></rect></g>
<g transform="translate(96,552) scale(4.12)"><rect width="6" height="6"></rect></g>
<g transform="translate(144,552) scale(4.12)"><rect width="6" height="6"></rect></g>
<g transform="translate(264,552) scale(4.12)"><rect width="6" height="6"></rect></g>
<g transform="translate(288,552) scale(4.12)"><rect width="6" height="6"></rect></g>
<g transform="translate(312,552) scale(4.12)"><rect width="6" height="6"></rect></g>
<g transform="translate(336,552) scale(4.12)"><rect width="6" height="6"></rect></g>
<g transform="translate(384,552) scale(4.12)"><rect width="6" height="6"></rect></g>
<g transform="translate(408,552) scale(4.12)"><rect width="6" height="6"></rect></g>
<g transform="translate(432,552) scale(4.12)"><rect width="6" height="6"></rect></g>
<g transform="translate(456,552) scale(4.12)"><rect width="6" height="6"></rect></g>
<g transform="translate(480,552) scale(4.12)"><rect width="6" height="6"></rect></g>
<g transform="translate(528,552) scale(4.12)"><rect width="6" height="6"></rect></g>
<g transform="translate(600,552) scale(4.12)"><rect width="6" height="6"></rect></g>
<g transform="translate(744,552) scale(4.12)"><rect width="6" height="6"></rect></g>
<g transform="translate(792,552) scale(4.12)"><rect width="6" height="6"></rect></g>
<g transform="translate(864,552) scale(4.12)"><rect width="6" height="6"></rect></g>
<g transform="translate(72,576) scale(4.12)"><rect width="6" height="6"></rect></g>
<g transform="translate(120,576) scale(4.12)"><rect width="6" height="6"></rect></g>
<g transform="translate(144,576) scale(4.12)"><rect width="6" height="6"></rect></g>
<g transform="translate(168,576) scale(4.12)"><rect width="6" height="6"></rect></g>
<g transform="translate(192,576) scale(4.12)"><rect width="6" height="6"></rect></g>
<g transform="translate(216,576) scale(4.12)"><rect width="6" height="6"></rect></g>
<g transform="translate(312,576) scale(4.12)"><rect width="6" height="6"></rect></g>
<g transform="translate(384,576) scale(4.12)"><rect width="6" height="6"></rect></g>
<g transform="translate(408,576) scale(4.12)"><rect width="6" height="6"></rect></g>
<g transform="translate(480,576) scale(4.12)"><rect width="6" height="6"></rect></g>
<g transform="translate(504,576) scale(4.12)"><rect width="6" height="6"></rect></g>
<g transform="translate(528,576) scale(4.12)"><rect width="6" height="6"></rect></g>
<g transform="translate(552,576) scale(4.12)"><rect width="6" height="6"></rect></g>
<g transform="translate(696,576) scale(4.12)"><rect width="6" height="6"></rect></g>
<g transform="translate(720,576) scale(4.12)"><rect width="6" height="6"></rect></g>
<g transform="translate(768,576) scale(4.12)"><rect width="6" height="6"></rect></g>
<g transform="translate(840,576) scale(4.12)"><rect width="6" height="6"></rect></g>
<g transform="translate(888,576) scale(4.12)"><rect width="6" height="6"></rect></g>
<g transform="translate(912,576) scale(4.12)"><rect width="6" height="6"></rect></g>
<g transform="translate(48,600) scale(4.12)"><rect width="6" height="6"></rect></g>
<g transform="translate(72,600) scale(4.12)"><rect width="6" height="6"></rect></g>
<g transform="translate(168,600) scale(4.12)"><rect width="6" height="6"></rect></g>
<g transform="translate(216,600) scale(4.12)"><rect width="6" height="6"></rect></g>
<g transform="translate(240,600) scale(4.12)"><rect width="6" height="6"></rect></g>
<g transform="translate(336,600) scale(4.12)"><rect width="6" height="6"></rect></g>
<g transform="translate(360,600) scale(4.12)"><rect width="6" height="6"></rect></g>
<g transform="translate(384,600) scale(4.12)"><rect width="6" height="6"></rect></g>
<g transform="translate(408,600) scale(4.12)"><rect width="6" height="6"></rect></g>
<g transform="translate(480,600) scale(4.12)"><rect width="6" height="6"></rect></g>
<g transform="translate(528,600) scale(4.12)"><rect width="6" height="6"></rect></g>
<g transform="translate(552,600) scale(4.12)"><rect width="6" height="6"></rect></g>
<g transform="translate(672,600) scale(4.12)"><rect width="6" height="6"></rect></g>
<g transform="translate(720,600) scale(4.12)"><rect width="6" height="6"></rect></g>
<g transform="translate(768,600) scale(4.12)"><rect width="6" height="6"></rect></g>
<g transform="translate(792,600) scale(4.12)"><rect width="6" height="6"></rect></g>
<g transform="translate(912,600) scale(4.12)"><rect width="6" height="6"></rect></g>
<g transform="translate(72,624) scale(4.12)"><rect width="6" height="6"></rect></g>
<g transform="translate(120,624) scale(4.12)"><rect width="6" height="6"></rect></g>
<g transform="translate(192,624) scale(4.12)"><rect width="6" height="6"></rect></g>
<g transform="translate(216,624) scale(4.12)"><rect width="6" height="6"></rect></g>
<g transform="translate(264,624) scale(4.12)"><rect width="6" height="6"></rect></g>
<g transform="translate(288,624) scale(4.12)"><rect width="6" height="6"></rect></g>
<g transform="translate(312,624) scale(4.12)"><rect width="6" height="6"></rect></g>
<g transform="translate(384,624) scale(4.12)"><rect width="6" height="6"></rect></g>
<g transform="translate(408,624) scale(4.12)"><rect width="6" height="6"></rect></g>
<g transform="translate(432,624) scale(4.12)"><rect width="6" height="6"></rect></g>
<g transform="translate(504,624) scale(4.12)"><rect width="6" height="6"></rect></g>
<g transform="translate(528,624) scale(4.12)"><rect width="6" height="6"></rect></g>
<g transform="translate(744,624) scale(4.12)"><rect width="6" height="6"></rect></g>
<g transform="translate(792,624) scale(4.12)"><rect width="6" height="6"></rect></g>
<g transform="translate(840,624) scale(4.12)"><rect width="6" height="6"></rect></g>
<g transform="translate(864,624) scale(4.12)"><rect width="6" height="6"></rect></g>
<g transform="translate(888,624) scale(4.12)"><rect width="6" height="6"></rect></g>
<g transform="translate(912,624) scale(4.12)"><rect width="6" height="6"></rect></g>
<g transform="translate(48,648) scale(4.12)"><rect width="6" height="6"></rect></g>
<g transform="translate(120,648) scale(4.12)"><rect width="6" height="6"></rect></g>
<g transform="translate(144,648) scale(4.12)"><rect width="6" height="6"></rect></g>
<g transform="translate(168,648) scale(4.12)"><rect width="6" height="6"></rect></g>
<g transform="translate(264,648) scale(4.12)"><rect width="6" height="6"></rect></g>
<g transform="translate(288,648) scale(4.12)"><rect width="6" height="6"></rect></g>
<g transform="translate(312,648) scale(4.12)"><rect width="6" height="6"></rect></g>
<g transform="translate(360,648) scale(4.12)"><rect width="6" height="6"></rect></g>
<g transform="translate(384,648) scale(4.12)"><rect width="6" height="6"></rect></g>
<g transform="translate(408,648) scale(4.12)"><rect width="6" height="6"></rect></g>
<g transform="translate(504,648) scale(4.12)"><rect width="6" height="6"></rect></g>
<g transform="translate(576,648) scale(4.12)"><rect width="6" height="6"></rect></g>
<g transform="translate(624,648) scale(4.12)"><rect width="6" height="6"></rect></g>
<g transform="translate(672,648) scale(4.12)"><rect width="6" height="6"></rect></g>
<g transform="translate(720,648) scale(4.12)"><rect width="6" height="6"></rect></g>
<g transform="translate(768,648) scale(4.12)"><rect width="6" height="6"></rect></g>
<g transform="translate(840,648) scale(4.12)"><rect width="6" height="6"></rect></g>
<g transform="translate(48,672) scale(4.12)"><rect width="6" height="6"></rect></g>
<g transform="translate(144,672) scale(4.12)"><rect width="6" height="6"></rect></g>
<g transform="translate(192,672) scale(4.12)"><rect width="6" height="6"></rect></g>
<g transform="translate(264,672) scale(4.12)"><rect width="6" height="6"></rect></g>
<g transform="translate(288,672) scale(4.12)"><rect width="6" height="6"></rect></g>
<g transform="translate(336,672) scale(4.12)"><rect width="6" height="6"></rect></g>
<g transform="translate(384,672) scale(4.12)"><rect width="6" height="6"></rect></g>
<g transform="translate(432,672) scale(4.12)"><rect width="6" height="6"></rect></g>
<g transform="translate(480,672) scale(4.12)"><rect width="6" height="6"></rect></g>
<g transform="translate(552,672) scale(4.12)"><rect width="6" height="6"></rect></g>
<g transform="translate(576,672) scale(4.12)"><rect width="6" height="6"></rect></g>
<g transform="translate(672,672) scale(4.12)"><rect width="6" height="6"></rect></g>
<g transform="translate(696,672) scale(4.12)"><rect width="6" height="6"></rect></g>
<g transform="translate(792,672) scale(4.12)"><rect width="6" height="6"></rect></g>
<g transform="translate(816,672) scale(4.12)"><rect width="6" height="6"></rect></g>
<g transform="translate(864,672) scale(4.12)"><rect width="6" height="6"></rect></g>
<g transform="translate(888,672) scale(4.12)"><rect width="6" height="6"></rect></g>
<g transform="translate(912,672) scale(4.12)"><rect width="6" height="6"></rect></g>
<g transform="translate(48,696) scale(4.12)"><rect width="6" height="6"></rect></g>
<g transform="translate(168,696) scale(4.12)"><rect width="6" height="6"></rect></g>
<g transform="translate(216,696) scale(4.12)"><rect width="6" height="6"></rect></g>
<g transform="translate(240,696) scale(4.12)"><rect width="6" height="6"></rect></g>
<g transform="translate(264,696) scale(4.12)"><rect width="6" height="6"></rect></g>
<g transform="translate(384,696) scale(4.12)"><rect width="6" height="6"></rect></g>
<g transform="translate(408,696) scale(4.12)"><rect width="6" height="6"></rect></g>
<g transform="translate(456,696) scale(4.12)"><rect width="6" height="6"></rect></g>
<g transform="translate(480,696) scale(4.12)"><rect width="6" height="6"></rect></g>
<g transform="translate(528,696) scale(4.12)"><rect width="6" height="6"></rect></g>
<g transform="translate(576,696) scale(4.12)"><rect width="6" height="6"></rect></g>
<g transform="translate(624,696) scale(4.12)"><rect width="6" height="6"></rect></g>
<g transform="translate(672,696) scale(4.12)"><rect width="6" height="6"></rect></g>
<g transform="translate(888,696) scale(4.12)"><rect width="6" height="6"></rect></g>
<g transform="translate(48,720) scale(4.12)"><rect width="6" height="6"></rect></g>
<g transform="translate(96,720) scale(4.12)"><rect width="6" height="6"></rect></g>
<g transform="translate(144,720) scale(4.12)"><rect width="6" height="6"></rect></g>
<g transform="translate(192,720) scale(4.12)"><rect width="6" height="6"></rect></g>
<g transform="translate(216,720) scale(4.12)"><rect width="6" height="6"></rect></g>
<g transform="translate(240,720) scale(4.12)"><rect width="6" height="6"></rect></g>
<g transform="translate(336,720) scale(4.12)"><rect width="6" height="6"></rect></g>
<g transform="translate(432,720) scale(4.12)"><rect width="6" height="6"></rect></g>
<g transform="translate(576,720) scale(4.12)"><rect width="6" height="6"></rect></g>
<g transform="translate(648,720) scale(4.12)"><rect width="6" height="6"></rect></g>
<g transform="translate(672,720) scale(4.12)"><rect width="6" height="6"></rect></g>
<g transform="translate(720,720) scale(4.12)"><rect width="6" height="6"></rect></g>
<g transform="translate(744,720) scale(4.12)"><rect width="6" height="6"></rect></g>
<g transform="translate(768,720) scale(4.12)"><rect width="6" height="6"></rect></g>
<g transform="translate(792,720) scale(4.12)"><rect width="6" height="6"></rect></g>
<g transform="translate(816,720) scale(4.12)"><rect width="6" height="6"></rect></g>
<g transform="translate(864,720) scale(4.12)"><rect width="6" height="6"></rect></g>
<g transform="translate(888,720) scale(4.12)"><rect width="6" height="6"></rect></g>
<g transform="translate(240,744) scale(4.12)"><rect width="6" height="6"></rect></g>
<g transform="translate(264,744) scale(4.12)"><rect width="6" height="6"></rect></g>
<g transform="translate(288,744) scale(4.12)"><rect width="6" height="6"></rect></g>
<g transform="translate(336,744) scale(4.12)"><rect width="6" height="6"></rect></g>
<g transform="translate(456,744) scale(4.12)"><rect width="6" height="6"></rect></g>
<g transform="translate(480,744) scale(4.12)"><rect width="6" height="6"></rect></g>
<g transform="translate(528,744) scale(4.12)"><rect width="6" height="6"></rect></g>
<g transform="translate(600,744) scale(4.12)"><rect width="6" height="6"></rect></g>
<g transform="translate(672,744) scale(4.12)"><rect width="6" height="6"></rect></g>
<g transform="translate(720,744) scale(4.12)"><rect width="6" height="6"></rect></g>
<g transform="translate(816,744) scale(4.12)"><rect width="6" height="6"></rect></g>
<g transform="translate(288,768) scale(4.12)"><rect width="6" height="6"></rect></g>
<g transform="translate(336,768) scale(4.12)"><rect width="6" height="6"></rect></g>
<g transform="translate(360,768) scale(4.12)"><rect width="6" height="6"></rect></g>
<g transform="translate(408,768) scale(4.12)"><rect width="6" height="6"></rect></g>
<g transform="translate(432,768) scale(4.12)"><rect width="6" height="6"></rect></g>
<g transform="translate(456,768) scale(4.12)"><rect width="6" height="6"></rect></g>
<g transform="translate(480,768) scale(4.12)"><rect width="6" height="6"></rect></g>
<g transform="translate(504,768) scale(4.12)"><rect width="6" height="6"></rect></g>
<g transform="translate(528,768) scale(4.12)"><rect width="6" height="6"></rect></g>
<g transform="translate(552,768) scale(4.12)"><rect width="6" height="6"></rect></g>
<g transform="translate(576,768) scale(4.12)"><rect width="6" height="6"></rect></g>
<g transform="translate(624,768) scale(4.12)"><rect width="6" height="6"></rect></g>
<g transform="translate(672,768) scale(4.12)"><rect width="6" height="6"></rect></g>
<g transform="translate(720,768) scale(4.12)"><rect width="6" height="6"></rect></g>
<g transform="translate(768,768) scale(4.12)"><rect width="6" height="6"></rect></g>
<g transform="translate(816,768) scale(4.12)"><rect width="6" height="6"></rect></g>
<g transform="translate(840,768) scale(4.12)"><rect width="6" height="6"></rect></g>
<g transform="translate(888,768) scale(4.12)"><rect width="6" height="6"></rect></g>
<g transform="translate(912,768) scale(4.12)"><rect width="6" height="6"></rect></g>
<g transform="translate(288,792) scale(4.12)"><rect width="6" height="6"></rect></g>
<g transform="translate(312,792) scale(4.12)"><rect width="6" height="6"></rect></g>
<g transform="translate(384,792) scale(4.12)"><rect width="6" height="6"></rect></g>
<g transform="translate(408,792) scale(4.12)"><rect width="6" height="6"></rect></g>
<g transform="translate(432,792) scale(4.12)"><rect width="6" height="6"></rect></g>
<g transform="translate(456,792) scale(4.12)"><rect width="6" height="6"></rect></g>
<g transform="translate(480,792) scale(4.12)"><rect width="6" height="6"></rect></g>
<g transform="translate(504,792) scale(4.12)"><rect width="6" height="6"></rect></g>
<g transform="translate(600,792) scale(4.12)"><rect width="6" height="6"></rect></g>
<g transform="translate(720,792) scale(4.12)"><rect width="6" height="6"></rect></g>
<g transform="translate(816,792) scale(4.12)"><rect width="6" height="6"></rect></g>
<g transform="translate(240,816) scale(4.12)"><rect width="6" height="6"></rect></g>
<g transform="translate(264,816) scale(4.12)"><rect width="6" height="6"></rect></g>
<g transform="translate(336,816) scale(4.12)"><rect width="6" height="6"></rect></g>
<g transform="translate(360,816) scale(4.12)"><rect width="6" height="6"></rect></g>
<g transform="translate(456,816) scale(4.12)"><rect width="6" height="6"></rect></g>
<g transform="translate(480,816) scale(4.12)"><rect width="6" height="6"></rect></g>
<g transform="translate(504,816) scale(4.12)"><rect width="6" height="6"></rect></g>
<g transform="translate(552,816) scale(4.12)"><rect width="6" height="6"></rect></g>
<g transform="translate(576,816) scale(4.12)"><rect width="6" height="6"></rect></g>
<g transform="translate(600,816) scale(4.12)"><rect width="6" height="6"></rect></g>
<g transform="translate(624,816) scale(4.12)"><rect width="6" height="6"></rect></g>
<g transform="translate(648,816) scale(4.12)"><rect width="6" height="6"></rect></g>
<g transform="translate(672,816) scale(4.12)"><rect width="6" height="6"></rect></g>
<g transform="translate(696,816) scale(4.12)"><rect width="6" height="6"></rect></g>
<g transform="translate(720,816) scale(4.12)"><rect width="6" height="6"></rect></g>
<g transform="translate(744,816) scale(4.12)"><rect width="6" height="6"></rect></g>
<g transform="translate(768,816) scale(4.12)"><rect width="6" height="6"></rect></g>
<g transform="translate(792,816) scale(4.12)"><rect width="6" height="6"></rect></g>
<g transform="translate(816,816) scale(4.12)"><rect width="6" height="6"></rect></g>
<g transform="translate(864,816) scale(4.12)"><rect width="6" height="6"></rect></g>
<g transform="translate(912,816) scale(4.12)"><rect width="6" height="6"></rect></g>
<g transform="translate(240,840) scale(4.12)"><rect width="6" height="6"></rect></g>
<g transform="translate(288,840) scale(4.12)"><rect width="6" height="6"></rect></g>
<g transform="translate(336,840) scale(4.12)"><rect width="6" height="6"></rect></g>
<g transform="translate(384,840) scale(4.12)"><rect width="6" height="6"></rect></g>
<g transform="translate(408,840) scale(4.12)"><rect width="6" height="6"></rect></g>
<g transform="translate(528,840) scale(4.12)"><rect width="6" height="6"></rect></g>
<g transform="translate(552,840) scale(4.12)"><rect width="6" height="6"></rect></g>
<g transform="translate(720,840) scale(4.12)"><rect width="6" height="6"></rect></g>
<g transform="translate(768,840) scale(4.12)"><rect width="6" height="6"></rect></g>
<g transform="translate(816,840) scale(4.12)"><rect width="6" height="6"></rect></g>
<g transform="translate(864,840) scale(4.12)"><rect width="6" height="6"></rect></g>
<g transform="translate(240,864) scale(4.12)"><rect width="6" height="6"></rect></g>
<g transform="translate(432,864) scale(4.12)"><rect width="6" height="6"></rect></g>
<g transform="translate(480,864) scale(4.12)"><rect width="6" height="6"></rect></g>
<g transform="translate(552,864) scale(4.12)"><rect width="6" height="6"></rect></g>
<g transform="translate(600,864) scale(4.12)"><rect width="6" height="6"></rect></g>
<g transform="translate(624,864) scale(4.12)"><rect width="6" height="6"></rect></g>
<g transform="translate(720,864) scale(4.12)"><rect width="6" height="6"></rect></g>
<g transform="translate(792,864) scale(4.12)"><rect width="6" height="6"></rect></g>
<g transform="translate(864,864) scale(4.12)"><rect width="6" height="6"></rect></g>
<g transform="translate(912,864) scale(4.12)"><rect width="6" height="6"></rect></g>
<g transform="translate(264,888) scale(4.12)"><rect width="6" height="6"></rect></g>
<g transform="translate(288,888) scale(4.12)"><rect width="6" height="6"></rect></g>
<g transform="translate(312,888) scale(4.12)"><rect width="6" height="6"></rect></g>
<g transform="translate(360,888) scale(4.12)"><rect width="6" height="6"></rect></g>
<g transform="translate(408,888) scale(4.12)"><rect width="6" height="6"></rect></g>
<g transform="translate(480,888) scale(4.12)"><rect width="6" height="6"></rect></g>
<g transform="translate(504,888) scale(4.12)"><rect width="6" height="6"></rect></g>
<g transform="translate(552,888) scale(4.12)"><rect width="6" height="6"></rect></g>
<g transform="translate(576,888) scale(4.12)"><rect width="6" height="6"></rect></g>
<g transform="translate(600,888) scale(4.12)"><rect width="6" height="6"></rect></g>
<g transform="translate(672,888) scale(4.12)"><rect width="6" height="6"></rect></g>
<g transform="translate(696,888) scale(4.12)"><rect width="6" height="6"></rect></g>
<g transform="translate(720,888) scale(4.12)"><rect width="6" height="6"></rect></g>
<g transform="translate(744,888) scale(4.12)"><rect width="6" height="6"></rect></g>
<g transform="translate(792,888) scale(4.12)"><rect width="6" height="6"></rect></g>
<g transform="translate(816,888) scale(4.12)"><rect width="6" height="6"></rect></g>
<g transform="translate(912,888) scale(4.12)"><rect width="6" height="6"></rect></g>
<g transform="translate(264,912) scale(4.12)"><rect width="6" height="6"></rect></g>
<g transform="translate(288,912) scale(4.12)"><rect width="6" height="6"></rect></g>
<g transform="translate(312,912) scale(4.12)"><rect width="6" height="6"></rect></g>
<g transform="translate(384,912) scale(4.12)"><rect width="6" height="6"></rect></g>
<g transform="translate(432,912) scale(4.12)"><rect width="6" height="6"></rect></g>
<g transform="translate(504,912) scale(4.12)"><rect width="6" height="6"></rect></g>
<g transform="translate(552,912) scale(4.12)"><rect width="6" height="6"></rect></g>
<g transform="translate(576,912) scale(4.12)"><rect width="6" height="6"></rect></g>
<g transform="translate(600,912) scale(4.12)"><rect width="6" height="6"></rect></g>
<g transform="translate(624,912) scale(4.12)"><rect width="6" height="6"></rect></g>
<g transform="translate(648,912) scale(4.12)"><rect width="6" height="6"></rect></g>
<g transform="translate(672,912) scale(4.12)"><rect width="6" height="6"></rect></g>
<g transform="translate(744,912) scale(4.12)"><rect width="6" height="6"></rect></g>
<g transform="translate(816,912) scale(4.12)"><rect width="6" height="6"></rect></g>
<g transform="translate(864,912) scale(4.12)"><rect width="6" height="6"></rect></g>
<g transform="translate(888,912) scale(4.12)"><rect width="6" height="6"></rect></g>
<g transform="translate(912,912) scale(4.12)"><rect width="6" height="6"></rect></g>
</g><g><g transform="translate(48,48)" fill="#000000"><g transform="scale(12)"><path d="M0,0v14h14V0H0z M12,12H2V2h10V12z"></path></g></g>
<g transform="translate(768,48)" fill="#000000"><g transform="scale(12)"><path d="M0,0v14h14V0H0z M12,12H2V2h10V12z"></path></g></g>
<g transform="translate(48,768)" fill="#000000"><g transform="scale(12)"><path d="M0,0v14h14V0H0z M12,12H2V2h10V12z"></path></g></g>
<g transform="translate(96,96)" fill="#000000"><g transform="scale(12)"><rect width="6" height="6"></rect></g></g>
<g transform="translate(816,96)" fill="#000000"><g transform="scale(12)"><rect width="6" height="6"></rect></g></g>
<g transform="translate(96,816)" fill="#000000"><g transform="scale(12)"><rect width="6" height="6"></rect></g></g></g>
</svg>